<svg height="300px" width="300px" fill="#000000" xmlns="http://www.w3.org/2000/svg" xmlns:xlink="http://www.w3.org/1999/xlink" version="1.1" x="0px" y="0px" viewBox="0 0 100 100" enable-background="new 0 0 100 100" xml:space="preserve"><path d="M88.492,50l1.711-2.963c2.946-5.102,1.198-11.626-3.904-14.572l-2.963-1.711v-3.422  c0-5.891-4.776-10.667-10.667-10.667h-3.422l-1.711-2.963c-2.946-5.102-9.47-6.85-14.572-3.904L50,11.508l-2.963-1.711  C41.935,6.852,35.411,8.6,32.465,13.702l-1.711,2.963h-3.422c-5.891,0-10.667,4.776-10.667,10.667v3.422l-2.963,1.711  c-5.102,2.946-6.85,9.47-3.904,14.572L11.508,50l-1.711,2.963C6.852,58.065,8.6,64.589,13.702,67.535l2.963,1.711v3.422  c0,5.891,4.776,10.667,10.667,10.667h3.422l1.711,2.963c2.946,5.102,9.47,6.85,14.572,3.904L50,88.492l2.963,1.711  c5.102,2.946,11.626,1.198,14.572-3.904l1.711-2.963h3.422c5.891,0,10.667-4.776,10.667-10.667v-3.422l2.963-1.711  c5.102-2.946,6.85-9.47,3.904-14.572L88.492,50z M85.832,33.273c2.252,1.3,3.862,3.399,4.535,5.91  c0.673,2.511,0.328,5.135-0.972,7.386l-1.441,2.497l-4.618-7.999v-9.236L85.832,33.273z M73.72,73.72l-15.038,8.682H41.318  L26.28,73.72l-8.682-15.038V41.318L26.28,26.28l15.038-8.682h17.364L73.72,26.28l8.682,15.038v17.364L73.72,73.72z M82.401,60.549  v8.158l-7.065,4.079L82.401,60.549z M72.786,75.336l-4.079,7.065h-8.158L72.786,75.336z M57.065,83.335L50,87.414l-7.065-4.079  H57.065z M39.451,82.401h-8.158l-4.079-7.065L39.451,82.401z M24.664,72.786l-7.065-4.079v-8.158L24.664,72.786z M16.665,57.065  L12.586,50l4.079-7.065V57.065z M17.599,39.451v-8.158l7.065-4.079L17.599,39.451z M27.214,24.664l4.079-7.065h8.158L27.214,24.664z   M42.935,16.665L50,12.586l7.065,4.079H42.935z M60.549,17.599h8.158l4.079,7.065L60.549,17.599z M75.336,27.214l7.065,4.079v8.158  L75.336,27.214z M83.335,42.935L87.414,50l-4.079,7.065V42.935z M72.668,17.599c2.6,0,5.044,1.012,6.883,2.851  c1.838,1.838,2.851,4.283,2.851,6.883v2.883l-7.999-4.618l-4.618-7.999H72.668z M53.43,10.606c2.252-1.3,4.875-1.645,7.386-0.972  c2.511,0.673,4.61,2.284,5.91,4.535l1.441,2.497h-9.236l-7.999-4.618L53.43,10.606z M33.273,14.168  c1.3-2.252,3.399-3.862,5.91-4.535c2.511-0.673,5.135-0.328,7.386,0.972l2.497,1.441l-7.999,4.618h-9.236L33.273,14.168z   M17.599,27.332c0-2.6,1.012-5.044,2.851-6.883c1.838-1.838,4.283-2.851,6.883-2.851h2.883l-4.618,7.999l-7.999,4.618V27.332z   M10.606,46.57c-1.3-2.252-1.645-4.875-0.972-7.386c0.673-2.511,2.284-4.61,4.535-5.91l2.497-1.441v9.236l-4.618,7.999L10.606,46.57  z M14.168,66.727c-2.252-1.3-3.862-3.399-4.535-5.91c-0.673-2.511-0.328-5.135,0.972-7.386l1.441-2.497l4.618,7.999v9.236  L14.168,66.727z M27.332,82.401c-2.6,0-5.044-1.012-6.883-2.851c-1.838-1.838-2.851-4.283-2.851-6.883v-2.883l7.999,4.618  l4.618,7.999H27.332z M46.57,89.394c-2.252,1.3-4.875,1.645-7.386,0.972c-2.511-0.673-4.61-2.284-5.91-4.535l-1.441-2.497h9.236  l7.999,4.618L46.57,89.394z M66.727,85.832c-1.3,2.252-3.399,3.862-5.91,4.535c-2.511,0.673-5.135,0.328-7.386-0.972l-2.497-1.441  l7.999-4.618h9.236L66.727,85.832z M82.401,72.668c0,2.6-1.012,5.044-2.851,6.883c-1.838,1.838-4.283,2.851-6.883,2.851h-2.883  l4.618-7.999l7.999-4.618V72.668z M90.367,60.816c-0.673,2.511-2.284,4.61-4.535,5.91l-2.497,1.441v-9.236l4.618-7.999l1.441,2.497  C90.694,55.682,91.04,58.305,90.367,60.816z"/></svg>