<?xml version="1.0" ?><svg height="48" viewBox="0 0 48 48" width="48" xmlns="http://www.w3.org/2000/svg"><defs><style>.cls-1{fill:#f1f2f2;}.cls-2{fill:#49aaee;}</style></defs><title/><g data-name="4-Facebook" id="_4-Facebook"><g data-name="&lt;Group&gt;" id="_Group_"><path class="cls-1" d="M35,23l-2,7H27V47H19V30H13V23h6V11a2.938,2.938,0,0,1,3-3H34v7H27v8Z"/><path class="cls-2" d="M47,9V39a8,8,0,0,1-8,8H27V30h6l2-7H27V15h7V8H22a2.938,2.938,0,0,0-3,3V23H13v7h6V47H9a8,8,0,0,1-8-8V9A8,8,0,0,1,9,1H39A8,8,0,0,1,47,9Z"/></g></g></svg>